<svg xmlns="http://www.w3.org/2000/svg" xmlns:xlink="http://www.w3.org/1999/xlink" width="57.237" height="56.59" viewBox="0 0 57.237 56.59">
  <defs>
    <clipPath id="clip-path">
      <rect id="Rectangle_64" data-name="Rectangle 64" width="56" height="56" transform="translate(0.424 0.453)" fill="#b8123e"/>
    </clipPath>
  </defs>
  <g id="Group_80" data-name="Group 80" transform="translate(-704 -284.59)">
    <path id="Path_67" data-name="Path 67" d="M715.7,624.082h-7.811A3.893,3.893,0,0,0,704,627.971v3.871a3.878,3.878,0,0,0,1.84,3.307v6.474a1.677,1.677,0,0,0,1.677,1.677h8.555a1.677,1.677,0,0,0,1.677-1.677v-6.474a3.879,3.879,0,0,0,1.84-3.307v-3.871a3.893,3.893,0,0,0-3.889-3.889Zm0,0" transform="translate(0 -302.121)" fill="#b8123e"/>
    <path id="Path_68" data-name="Path 68" d="M733.9,517.7a5.732,5.732,0,1,0-5.732,5.732A5.738,5.738,0,0,0,733.9,517.7Zm0,0" transform="translate(-16.373 -202.545)" fill="#b8123e"/>
    <path id="Path_69" data-name="Path 69" d="M889.628,603h-9.817a4.463,4.463,0,0,0-4.456,4.461v2.376a4.45,4.45,0,0,0,2.315,3.914l.027,9.153a1.677,1.677,0,0,0,1.677,1.672h10.752a1.692,1.692,0,0,0,1.677-1.682l-.027-9.147a4.45,4.45,0,0,0,2.308-3.911v-2.376A4.464,4.464,0,0,0,889.628,603Zm0,0" transform="translate(-152.199 -283.392)" fill="#b8123e"/>
    <path id="Path_70" data-name="Path 70" d="M905.293,475.889a6.773,6.773,0,1,0-6.773-6.773,6.78,6.78,0,0,0,6.773,6.773Zm0,0" transform="translate(-172.774 -158.464)" fill="#b8123e"/>
    <g id="Group_79" data-name="Group 79" transform="translate(704.194 284.137)">
      <g id="Group_78" data-name="Group 78" transform="translate(0 0)" clip-path="url(#clip-path)">
        <path id="Path_71" data-name="Path 71" d="M892.743,289.392l-4.377-1.145-2.5-3.538a1.677,1.677,0,0,0-2.74,0l-2.5,3.538-4.377,1.145a1.677,1.677,0,0,0-.856,2.7l2.783,3.293-.19,4.185a1.677,1.677,0,0,0,2.229,1.659l4.279-1.5,4.279,1.5a1.677,1.677,0,0,0,2.229-1.659l-.19-4.185L893.6,292.1a1.677,1.677,0,0,0-.857-2.7Zm0,0" transform="translate(-856.079 -284.194)" fill="#b8123e"/>
        <path id="Path_72" data-name="Path 72" d="M718.81,312.483l-3.418-.894-1.948-2.759a1.677,1.677,0,0,0-2.74,0l-1.948,2.759-3.418.894a1.677,1.677,0,0,0-.856,2.7l2.164,2.561L706.5,321a1.677,1.677,0,0,0,2.229,1.659l3.346-1.172,3.346,1.172A1.676,1.676,0,0,0,717.651,321l-.148-3.25,2.164-2.561a1.676,1.676,0,0,0-.857-2.7Zm0,0" transform="translate(-704.271 -305.619)" fill="#b8123e"/>
        <path id="Path_73" data-name="Path 73" d="M1075.646,317.749,1075.5,321a1.677,1.677,0,0,0,2.229,1.659l3.346-1.172,3.346,1.172a1.726,1.726,0,0,0,1.555-.238,1.675,1.675,0,0,0,.674-1.421l-.147-3.25,2.164-2.561a1.677,1.677,0,0,0-.856-2.7l-3.418-.894-1.948-2.759a1.677,1.677,0,0,0-2.74,0l-1.948,2.759-3.418.894a1.677,1.677,0,0,0-.856,2.7Zm0,0" transform="translate(-1032.019 -305.619)" fill="#b8123e"/>
      </g>
    </g>
    <path id="Path_74" data-name="Path 74" d="M1088.259,624.082h-7.811a3.893,3.893,0,0,0-3.888,3.889v3.871a3.879,3.879,0,0,0,1.839,3.307v6.474a1.677,1.677,0,0,0,1.677,1.677h8.555a1.677,1.677,0,0,0,1.677-1.677v-6.474a3.878,3.878,0,0,0,1.839-3.307v-3.871a3.893,3.893,0,0,0-3.888-3.889Zm0,0" transform="translate(-330.91 -302.121)" fill="#b8123e"/>
    <path id="Path_75" data-name="Path 75" d="M1100.723,511.973a5.732,5.732,0,1,0,5.732,5.732,5.738,5.738,0,0,0-5.732-5.732Zm0,0" transform="translate(-347.282 -202.545)" fill="#b8123e"/>
  </g>
</svg>
