<svg xmlns="http://www.w3.org/2000/svg" width="66.179" height="66.266" viewBox="0 0 66.179 66.266">
  <g id="Group_77" data-name="Group 77" transform="translate(-0.334)">
    <path id="Path_60" data-name="Path 60" d="M221.907,5.824a5.955,5.955,0,0,0-11.907,0,5.955,5.955,0,0,0,11.907,0Z" transform="translate(-182.53)" fill="#b8123e"/>
    <path id="Path_61" data-name="Path 61" d="M101.648,306.824a5.824,5.824,0,1,0-5.824,5.824A5.831,5.831,0,0,0,101.648,306.824Z" transform="translate(-78.061 -262.043)" fill="#b8123e"/>
    <path id="Path_62" data-name="Path 62" d="M343.648,306.824a5.824,5.824,0,1,0-5.824,5.824A5.831,5.831,0,0,0,343.648,306.824Z" transform="translate(-288.74 -262.043)" fill="#b8123e"/>
    <path id="Path_63" data-name="Path 63" d="M63.769,214.867A5.8,5.8,0,0,0,58.025,210H8.822a5.8,5.8,0,0,0-5.745,4.867L.414,230.527a5.813,5.813,0,0,0,1.3,4.723,6.009,6.009,0,0,0,2.831,1.778,15.6,15.6,0,0,1,4.68-4.9,9.581,9.581,0,0,1-1.17-4.521,9.707,9.707,0,0,1,19.414,0,9.581,9.581,0,0,1-1.17,4.521,15.586,15.586,0,0,1,4.833,5.186h4.58a15.587,15.587,0,0,1,4.833-5.186,9.583,9.583,0,0,1-1.17-4.521,9.707,9.707,0,1,1,19.414,0,9.581,9.581,0,0,1-1.17,4.521,15.592,15.592,0,0,1,4.68,4.9,6.009,6.009,0,0,0,2.831-1.778,5.813,5.813,0,0,0,1.3-4.723Z" transform="translate(0 -182.821)" fill="#b8123e"/>
    <path id="Path_64" data-name="Path 64" d="M309.83,411.139a11.361,11.361,0,0,0-5.164-6.639,9.548,9.548,0,0,1-12.036,0,11.442,11.442,0,0,0-5.164,6.678A11.847,11.847,0,0,0,287,414.53v1.941a1.923,1.923,0,0,0,1.941,1.941h19.414a1.923,1.923,0,0,0,1.941-1.941V414.53a11.848,11.848,0,0,0-.466-3.352S309.791,411.178,309.83,411.139Z" transform="translate(-249.564 -352.148)" fill="#b8123e"/>
    <path id="Path_65" data-name="Path 65" d="M165,113.27h23.555a11.614,11.614,0,0,0-5.626-9.92,9.859,9.859,0,0,1-12.3,0A11.614,11.614,0,0,0,165,113.27Z" transform="translate(-143.354 -89.974)" fill="#b8123e"/>
    <path id="Path_66" data-name="Path 66" d="M68.3,416.472V414.53a11.849,11.849,0,0,0-.466-3.352s-.039,0,0-.039a11.361,11.361,0,0,0-5.164-6.639,9.548,9.548,0,0,1-12.036,0,11.442,11.442,0,0,0-5.164,6.678A11.854,11.854,0,0,0,45,414.53v1.941a1.923,1.923,0,0,0,1.941,1.941H66.355A1.923,1.923,0,0,0,68.3,416.472Z" transform="translate(-38.885 -352.148)" fill="#b8123e"/>
  </g>
</svg>
