<svg xmlns="http://www.w3.org/2000/svg" width="64.404" height="64.404" viewBox="0 0 64.404 64.404">
  <g id="Group_82" data-name="Group 82" transform="translate(-768 -348)">
    <path id="Path_85" data-name="Path 85" d="M899.394,399.869l4.2-4.7a1.888,1.888,0,0,1,2.807-.007l4.353,4.817,5.476-5.477-9.217-10.775V365.107h13.208a1.888,1.888,0,0,0,1.635-2.83l-3.24-5.616,3.255-5.858a1.889,1.889,0,0,0-1.65-2.8H905.128a1.886,1.886,0,0,0-1.887,1.887v34.021l-9.171,10.637Zm0,0" transform="translate(-104.926)" fill="#b8123e"/>
    <path id="Path_86" data-name="Path 86" d="M835.614,649.1a1.887,1.887,0,0,1-2.734-.069L828.6,644.3l-4.132,4.621a1.887,1.887,0,0,1-2.741.076l-6.536-6.536-12.927,14.993h52.87l-12.851-15.023Zm0,0" transform="translate(-28.519 -245.045)" fill="#b8123e"/>
    <path id="Path_87" data-name="Path 87" d="M1081.276,622.478,1073.6,614.8a1.887,1.887,0,0,0-2.668,0l-3.246,3.247,13.345,15.6a1.883,1.883,0,0,0,.8-1.538v-8.3a1.887,1.887,0,0,0-.553-1.334Zm0,0" transform="translate(-249.425 -221.597)" fill="#b8123e"/>
    <path id="Path_88" data-name="Path 88" d="M778.894,614.8a1.886,1.886,0,0,0-2.668,0l-7.673,7.673a1.889,1.889,0,0,0-.552,1.334v8.3a1.882,1.882,0,0,0,.763,1.513l13.405-15.549Zm0,0" transform="translate(0 -221.596)" fill="#b8123e"/>
  </g>
</svg>
