<svg xmlns="http://www.w3.org/2000/svg" width="91.225" height="121.633" viewBox="0 0 91.225 121.633">
  <g id="Group_102" data-name="Group 102" transform="translate(-64)">
    <path id="Path_114" data-name="Path 114" d="M320,0V30.408h30.408Z" transform="translate(-195.184)" fill="#b8123e"/>
    <path id="Path_115" data-name="Path 115" d="M117.214,30.408V0H71.6A7.615,7.615,0,0,0,64,7.6V114.031a7.61,7.61,0,0,0,7.6,7.6h76.021a7.6,7.6,0,0,0,7.6-7.6V38.01H124.816A7.615,7.615,0,0,1,117.214,30.408ZM90.607,23.277V19.005a3.8,3.8,0,1,1,7.6,0v4.28a15.624,15.624,0,0,1,6.431,3.033,3.8,3.8,0,0,1-4.8,5.892,8.628,8.628,0,0,0-5.435-1.8c-4.12,0-7.6,2.608-7.6,5.7s3.482,5.7,7.6,5.7c8.385,0,15.2,5.968,15.2,13.3,0,6.18-4.865,11.342-11.4,12.832v4.272a3.8,3.8,0,1,1-7.6,0V67.94a15.625,15.625,0,0,1-6.431-3.033,3.8,3.8,0,0,1,4.8-5.9,8.589,8.589,0,0,0,5.435,1.809c4.12,0,7.6-2.608,7.6-5.7s-3.482-5.7-7.6-5.7c-8.385,0-15.2-5.968-15.2-13.3C79.2,29.929,84.069,24.767,90.607,23.277Zm45.612,83.151H83.005a3.8,3.8,0,1,1,0-7.6h53.214a3.8,3.8,0,1,1,0,7.6Zm0-15.2H83.005a3.8,3.8,0,0,1,0-7.6h53.214a3.8,3.8,0,0,1,0,7.6Zm0-15.2h-15.2a3.8,3.8,0,1,1,0-7.6h15.2a3.8,3.8,0,1,1,0,7.6Zm3.8-19.005a3.8,3.8,0,0,1-3.8,3.8h-15.2a3.8,3.8,0,0,1,0-7.6h15.2A3.8,3.8,0,0,1,140.021,57.015Z" fill="#b8123e"/>
  </g>
</svg>
