<svg xmlns="http://www.w3.org/2000/svg" width="71.417" height="41.66" viewBox="0 0 71.417 41.66">
  <g id="Group_76" data-name="Group 76" transform="translate(0 -106.667)">
    <path id="Path_56" data-name="Path 56" d="M17.259,109.94c-2.38-2.38-12.5-2.976-15.771-3.273a1.093,1.093,0,0,0-.893.3,2.255,2.255,0,0,0-.6,1.19v26.781a1.406,1.406,0,0,0,1.488,1.488h8.927a1.636,1.636,0,0,0,1.488-.893c0-.893,5.356-16.664,5.951-24.4A1.188,1.188,0,0,0,17.259,109.94Z" fill="#b8123e"/>
    <path id="Path_57" data-name="Path 57" d="M196.87,152.657c-5.356-2.381-7.737-1.19-12.5,3.571-2.083,2.083-3.571,5.059-3.273,6.249,0,.3,0,.3.6.6,1.488.6,3.571.893,5.654-2.381a1.547,1.547,0,0,1,1.19-.6,5.517,5.517,0,0,0,2.083-.6,14.493,14.493,0,0,1,2.083-.893h.6c.3,0,.893.3,1.19.3,1.488,1.488,4.166,3.571,6.844,5.951,4.166,3.273,8.332,6.844,10.415,9.522h.3c-2.083-5.951-5.654-16.069-7.142-18.747C201.929,154.74,199.251,153.55,196.87,152.657Z" transform="translate(-155.806 -38.551)" fill="#b8123e"/>
    <path id="Path_58" data-name="Path 58" d="M382.009,128c-11.605,0-18.152,2.976-18.449,2.976l-.893.893a1.79,1.79,0,0,0,.3,1.19c1.785,2.976,7.737,19.342,8.63,23.508a1.977,1.977,0,0,0,1.488,1.19h8.927a1.406,1.406,0,0,0,1.488-1.488V129.488A1.406,1.406,0,0,0,382.009,128Z" transform="translate(-312.08 -18.357)" fill="#b8123e"/>
    <path id="Path_59" data-name="Path 59" d="M138.607,183.76c-2.38-2.083-4.761-3.868-6.547-5.356-.3.3-.893.3-.893.6a5.607,5.607,0,0,1-2.381.6c-2.38,2.976-5.356,4.166-8.629,2.976a3.518,3.518,0,0,1-2.678-2.678c-.6-2.976,2.083-7.142,4.166-9.225h-5.951a151.721,151.721,0,0,1-4.761,17.854,33.637,33.637,0,0,0,3.273,3.273c5.654,4.761,12.2,9.522,13.391,10.415a8.458,8.458,0,0,0,3.571,1.19h.893l-4.761-4.761a1.473,1.473,0,0,1,2.083-2.083l5.951,5.951c.6.6,1.19.3,1.785.3.893-.3,1.19-.893,1.488-1.785l-6.844-6.844a1.473,1.473,0,1,1,2.083-2.083l7.439,7.439a3.182,3.182,0,0,0,2.381,0c.3-.3.893-.6,1.19-1.19l-8.332-8.332a1.473,1.473,0,1,1,2.083-2.083l8.63,8.63a1.967,1.967,0,0,0,1.785-.3,2.02,2.02,0,0,0,.3-2.38C148.13,191.2,143.071,187.331,138.607,183.76Z" transform="translate(-95.459 -55.073)" fill="#b8123e"/>
  </g>
</svg>
