<svg xmlns="http://www.w3.org/2000/svg" width="121.236" height="121.366" viewBox="0 0 121.236 121.366">
  <g id="Group_101" data-name="Group 101" transform="translate(65 114.929)">
    <path id="Path_109" data-name="Path 109" d="M101.79,107.246,88.164,125.064a14.409,14.409,0,0,1-11.446,5.656H51.42a3.6,3.6,0,0,1,0-7.2H73.346a8.539,8.539,0,0,0,8.57-8.569,8.4,8.4,0,0,0-8.4-8.241H48.3a20.86,20.86,0,0,0-26.585-1.937L19,106.706V147.53H81.645a21.611,21.611,0,0,0,18.18-9.926l14.058-21.867a7.395,7.395,0,0,0-12.094-8.491Zm0,0" transform="translate(-58.822 -148.298)" fill="#b8123e"/>
    <path id="Path_110" data-name="Path 110" d="M-48.91,96.571H-61.4a3.6,3.6,0,0,0-3.6,3.6V148.2a3.6,3.6,0,0,0,3.6,3.6H-48.91a3.6,3.6,0,0,0,3.6-3.6V100.173a3.6,3.6,0,0,0-3.6-3.6Zm0,0" transform="translate(0 -145.367)" fill="#b8123e"/>
    <path id="Path_111" data-name="Path 111" d="M146.887-52.749a3.574,3.574,0,0,0-1.276,2.15,2.485,2.485,0,0,0,.618,2.409c.2.158.421.312.658.463Zm0,0" transform="translate(-144.083 -42.538)" fill="#b8123e"/>
    <path id="Path_112" data-name="Path 112" d="M94.018-54.893a30.052,30.052,0,0,0,30.018-30.018,30.052,30.052,0,0,0-30.018-30.018A30.052,30.052,0,0,0,64-84.911,30.052,30.052,0,0,0,94.018-54.893ZM84.931-75.1a2.4,2.4,0,0,1,3.325-.7,7.266,7.266,0,0,0,3.2,1.37V-84.564a17.688,17.688,0,0,1-3.621-2.117,7.182,7.182,0,0,1-2.375-7.077A8.089,8.089,0,0,1,91-100.1c.151-.046.3-.087.449-.126v-1.495a2.4,2.4,0,0,1,2.4-2.4,2.4,2.4,0,0,1,2.4,2.4v1.231a8.337,8.337,0,0,1,4.777,2.468,2.4,2.4,0,0,1-.232,3.388,2.4,2.4,0,0,1-3.375-.218,3.321,3.321,0,0,0-1.17-.693v7.76c.425.158.852.312,1.27.459a8.6,8.6,0,0,1,5.842,9.725,9.763,9.763,0,0,1-7.112,7.781v1.72a2.4,2.4,0,0,1-2.4,2.4,2.4,2.4,0,0,1-2.4-2.4v-1.49a11.629,11.629,0,0,1-5.825-2.181,2.4,2.4,0,0,1-.7-3.325Zm0,0" transform="translate(-88.823)" fill="#b8123e"/>
    <path id="Path_113" data-name="Path 113" d="M167.106-9.9a3.714,3.714,0,0,0-2.376-4.27v7.713A4.96,4.96,0,0,0,167.106-9.9Zm0,0" transform="translate(-157.221 -68.938)" fill="#b8123e"/>
  </g>
</svg>
