<svg xmlns="http://www.w3.org/2000/svg" width="121.81" height="121.81" viewBox="0 0 121.81 121.81">
  <g id="Group_100" data-name="Group 100" transform="translate(65 114.929)">
    <path id="Path_102" data-name="Path 102" d="M210.8,93.931a13.68,13.68,0,1,1,13.68-13.68,13.695,13.695,0,0,1-13.68,13.68Zm0,0" transform="translate(-178.975 -123.926)" fill="#b8123e"/>
    <path id="Path_103" data-name="Path 103" d="M-15.7,93.931a13.7,13.7,0,0,1-13.68-13.68A13.7,13.7,0,0,1-15.7,66.571a13.7,13.7,0,0,1,13.68,13.68A13.7,13.7,0,0,1-15.7,93.931Zm0,0" transform="translate(-24.324 -123.926)" fill="#b8123e"/>
    <path id="Path_104" data-name="Path 104" d="M91.9-105.413a11.766,11.766,0,0,1-10.581-6.539l-.5-1a3.567,3.567,0,0,0-3.192-1.973H58.593a3.567,3.567,0,0,0-3.192,1.973l-.5,1a11.766,11.766,0,0,1-10.581,6.539,3.568,3.568,0,0,0-3.569,3.569v20.365a36.692,36.692,0,0,0,7.306,22.058A36.685,36.685,0,0,0,67.084-46.086a3.563,3.563,0,0,0,1.026.151,3.563,3.563,0,0,0,1.026-.151A36.685,36.685,0,0,0,88.164-59.422a36.692,36.692,0,0,0,7.306-22.058v-20.365a3.568,3.568,0,0,0-3.569-3.569ZM80.726-84.638,67.269-71.179a3.559,3.559,0,0,1-2.523,1.046,3.559,3.559,0,0,1-2.523-1.046l-6.729-6.73a3.568,3.568,0,0,1,0-5.047,3.57,3.57,0,0,1,5.047,0l4.206,4.206L75.681-89.684a3.568,3.568,0,0,1,5.047,0,3.569,3.569,0,0,1,0,5.047Zm0,0" transform="translate(-72.205 0)" fill="#b8123e"/>
    <path id="Path_105" data-name="Path 105" d="M212.057,156.408a20.779,20.779,0,0,1-29.2-.017,25.039,25.039,0,0,0-5.266,5.12l1.96,1.717a27.369,27.369,0,0,1,9.353,20.579v8.327h29.977a3.568,3.568,0,0,0,3.569-3.569v-11.9a24.965,24.965,0,0,0-10.388-20.262Zm0,0" transform="translate(-165.634 -185.253)" fill="#b8123e"/>
    <path id="Path_106" data-name="Path 106" d="M-54.612,156.408A24.965,24.965,0,0,0-65,176.671v11.9a3.568,3.568,0,0,0,3.569,3.569h29.977v-8.327A27.369,27.369,0,0,1-22.1,163.229l1.96-1.717a25.039,25.039,0,0,0-5.266-5.12,20.744,20.744,0,0,1-14.612,6,20.75,20.75,0,0,1-14.593-5.987Zm0,0" transform="translate(0 -185.253)" fill="#b8123e"/>
    <path id="Path_107" data-name="Path 107" d="M96.777,194.872a18.391,18.391,0,0,1-26.609,0,20.176,20.176,0,0,0-6.918,15.21v8.327h40.445v-8.327a20.176,20.176,0,0,0-6.918-15.21Zm0,0" transform="translate(-87.567 -211.528)" fill="#b8123e"/>
    <path id="Path_108" data-name="Path 108" d="M102.676,141.673a11.3,11.3,0,1,1,11.3-11.3,11.313,11.313,0,0,1-11.3,11.3Zm0,0" transform="translate(-106.771 -159.772)" fill="#b8123e"/>
  </g>
</svg>
